<svg xmlns="http://www.w3.org/2000/svg" width="1024" height="1024" viewBox="0 0 1024 1024" fill="none">
  <title>Noteeees extension icon</title>
  <defs>
    <linearGradient id="page-back" x1="232" y1="874" x2="614" y2="232" gradientUnits="userSpaceOnUse">
      <stop offset="0" stop-color="#163465"/>
      <stop offset="1" stop-color="#4A8DFF"/>
    </linearGradient>
    <linearGradient id="page-mid" x1="358" y1="776" x2="714" y2="172" gradientUnits="userSpaceOnUse">
      <stop offset="0" stop-color="#0E8F8C"/>
      <stop offset="1" stop-color="#73E7D6"/>
    </linearGradient>
    <linearGradient id="page-top" x1="482" y1="704" x2="758" y2="144" gradientUnits="userSpaceOnUse">
      <stop offset="0" stop-color="#EDF5FF"/>
      <stop offset="1" stop-color="#FFFFFF"/>
    </linearGradient>
    <linearGradient id="fold-accent" x1="670" y1="120" x2="804" y2="246" gradientUnits="userSpaceOnUse">
      <stop offset="0" stop-color="#FFE18A"/>
      <stop offset="1" stop-color="#FFAC4B"/>
    </linearGradient>
  </defs>

  <g opacity="0.14">
    <rect x="226" y="332" width="422" height="534" rx="88" fill="#091A31" transform="translate(437 599) rotate(-18) translate(-437 -599)"/>
    <rect x="340" y="212" width="438" height="556" rx="88" fill="#0B1D34" transform="translate(559 490) rotate(-7) translate(-559 -490)"/>
    <rect x="442" y="172" width="390" height="534" rx="74" fill="#0B1D34" transform="translate(637 439) rotate(11) translate(-637 -439)"/>
  </g>

  <rect
    x="202"
    y="302"
    width="422"
    height="534"
    rx="88"
    fill="url(#page-back)"
    stroke="#0F2340"
    stroke-width="22"
    transform="translate(413 569) rotate(-18) translate(-413 -569)"
  />

  <rect
    x="312"
    y="182"
    width="438"
    height="556"
    rx="88"
    fill="url(#page-mid)"
    stroke="#0E3B5E"
    stroke-width="22"
    transform="translate(531 460) rotate(-7) translate(-531 -460)"
  />

  <g transform="translate(637 439) rotate(11) translate(-637 -439)">
    <rect
      x="442"
      y="172"
      width="390"
      height="534"
      rx="74"
      fill="url(#page-top)"
      stroke="#14345A"
      stroke-width="22"
    />

    <path
      d="M690 172H758C799 172 832 205 832 246V314L690 172Z"
      fill="url(#fold-accent)"
      stroke="#14345A"
      stroke-width="22"
      stroke-linejoin="round"
    />

    <path
      d="M690 172L832 314"
      stroke="#14345A"
      stroke-width="18"
      stroke-linecap="round"
    />

    <rect x="492" y="274" width="42" height="42" rx="12" fill="#FFB34A"/>
    <rect x="558" y="282" width="180" height="26" rx="13" fill="#183B66"/>

    <rect x="492" y="360" width="42" height="42" rx="12" fill="#42C6B5"/>
    <rect x="558" y="368" width="214" height="26" rx="13" fill="#245D8E"/>

    <rect x="492" y="446" width="42" height="42" rx="12" fill="#4A8DFF"/>
    <rect x="558" y="454" width="154" height="26" rx="13" fill="#3B74B3"/>

    <rect x="492" y="558" width="244" height="28" rx="14" fill="#D3E4FB"/>
    <rect x="492" y="608" width="196" height="28" rx="14" fill="#B7D1F4"/>
  </g>
</svg>
